<svg width="24" height="24" viewBox="0 0 24 24" fill="none" xmlns="http://www.w3.org/2000/svg">
<g id="icon">
<path id="icon_2" fill-rule="evenodd" clip-rule="evenodd" d="M3.59998 3.59997C4.26272 3.59997 4.79997 4.13723 4.79997 4.79997L4.79997 19.1999C4.79997 19.8627 4.26272 20.3999 3.59997 20.3999C2.93723 20.3999 2.39997 19.8627 2.39997 19.1999L2.39997 4.79997C2.39997 4.13723 2.93723 3.59997 3.59998 3.59997ZM12.8485 7.55143C13.3171 8.02006 13.3171 8.77986 12.8485 9.24849L11.297 10.8L20.4 10.8C21.0627 10.8 21.6 11.3372 21.6 11.9999C21.6 12.6627 21.0627 13.1999 20.4 13.1999L11.297 13.1999L12.8485 14.7514C13.3171 15.22 13.3171 15.9798 12.8485 16.4485C12.3799 16.9171 11.6201 16.9171 11.1514 16.4485L7.55145 12.8485C7.3264 12.6234 7.19997 12.3182 7.19997 11.9999C7.19997 11.6817 7.3264 11.3765 7.55145 11.1514L11.1514 7.55143C11.6201 7.08281 12.3799 7.08281 12.8485 7.55143Z" fill="#4F46E5"/>
</g>
</svg>
