<svg width="32" height="32" viewBox="0 0 32 32" fill="none" xmlns="http://www.w3.org/2000/svg">
<g id="mdi:crosshairs">
<path id="Vector" d="M4.06668 17.3333H1.33334V14.6666H4.06668C4.66668 9.10659 9.10668 4.66659 14.6667 4.06659V1.33325H17.3333V4.06659C22.8933 4.66659 27.3333 9.10659 27.9333 14.6666H30.6667V17.3333H27.9333C27.3333 22.8933 22.8933 27.3333 17.3333 27.9333V30.6666H14.6667V27.9333C9.10668 27.3333 4.66668 22.8933 4.06668 17.3333ZM16 6.66659C13.5247 6.66659 11.1507 7.64992 9.40035 9.40026C7.65001 11.1506 6.66668 13.5246 6.66668 15.9999C6.66668 18.4753 7.65001 20.8492 9.40035 22.5996C11.1507 24.3499 13.5247 25.3333 16 25.3333C18.4754 25.3333 20.8493 24.3499 22.5997 22.5996C24.35 20.8492 25.3333 18.4753 25.3333 15.9999C25.3333 13.5246 24.35 11.1506 22.5997 9.40026C20.8493 7.64992 18.4754 6.66659 16 6.66659Z" fill="white"/>
<circle id="Ellipse 885" cx="16" cy="16" r="4" fill="white"/>
</g>
</svg>
