<svg width="100" height="100" viewBox="0 0 100 100" fill="none" xmlns="http://www.w3.org/2000/svg">
<g id="thumbnail">
<g clip-path="url(#clip0_6211_39108)">
<path id="Vector" d="M100 0H0V100H100V0Z" fill="#4F46E5"/>
<path id="Vector_2" opacity="0.3" d="M113.476 70.4408L82.25 29.875L25.25 80.4047L51.8795 115H110.5L113.476 70.4408Z" fill="black"/>
<path id="Union" fill-rule="evenodd" clip-rule="evenodd" d="M25.4112 55.7249C18.8503 53.404 14.1494 47.1455 14.1494 39.7902C14.1494 30.8778 21.0512 23.5757 29.801 22.9378C34.3991 16.9727 41.6157 13.1299 49.7303 13.1299C57.8388 13.1299 65.0507 16.9669 69.6493 22.9245C78.493 23.4654 85.4996 30.8105 85.4996 39.7902C85.4996 47.2157 80.7084 53.5235 74.0492 55.7904V80.2994C68.0933 87.9936 31.6973 87.8286 25.4112 80.2994V55.7249Z" fill="#E5E7EB"/>
<path id="Vector_3" d="M66.5 55.25V84.25C70.126 83.3107 72.9209 82.0153 74.25 80.3537V55.25H66.5Z" fill="#9CA3AF"/>
<path id="Vector_4" d="M25.25 80.3653C25.5829 80.765 26.0075 81.1409 26.5 81.5V54.5H25.25V80.3653Z" fill="white"/>
<path id="Vector_5" d="M48.75 63.25C39.1846 59.2155 31.0383 52.4814 25.2642 44C26.0459 47.3134 27.4853 50.3686 29.4379 53.028C28.2402 53.2997 26.9954 53.4439 25.7171 53.4439C23.7108 53.4439 21.7849 53.0918 20 52.4479C22.9525 55.0134 26.8075 56.5662 31.0249 56.5662C31.5282 56.5662 32.0247 56.5393 32.5146 56.4957C36.7924 60.5034 42.4726 63.0287 48.7466 63.2466" fill="#9CA3AF"/>
<path id="Vector_6" d="M79.75 52.6104C76.6423 54.2241 73.1057 55.1414 69.3479 55.1414C69.0314 55.1414 68.7148 55.1314 68.4017 55.118C71.7408 51.4722 74.0078 46.8588 74.7021 41.75C70.655 50.2636 64.2252 57.4581 56.25 62.5C60.2971 61.4086 63.9392 59.3597 66.9108 56.6145C67.4656 56.668 68.0272 56.6982 68.5957 56.6982C72.8607 56.6982 76.758 55.1548 79.75 52.6138" fill="#9CA3AF"/>
<path id="Vector_7" d="M78.5 26.2547C75.9802 24.4288 72.9409 23.2859 69.6453 23.083C65.0409 17.1047 57.8256 13.25 49.7062 13.25C41.5869 13.25 34.3581 17.1081 29.757 23.0965C22.2584 23.6409 16.1191 29.0849 14.5 36.25C17.428 31.3944 22.1403 27.7459 27.723 26.1972C26.6335 28.155 25.7901 30.2684 25.2471 32.5035C30.1888 23.4076 39.8092 17.2366 50.8666 17.2366C58.8983 17.2366 66.1743 20.4929 71.4466 25.761C71.2577 25.4398 71.0587 25.1219 70.8563 24.8075C73.511 24.9596 76.0713 25.4533 78.4966 26.2547" fill="white"/>
<path id="icon" fill-rule="evenodd" clip-rule="evenodd" d="M64.25 40.25C64.25 48.1201 57.8701 54.5 50 54.5C42.1299 54.5 35.75 48.1201 35.75 40.25C35.75 32.3799 42.1299 26 50 26C57.8701 26 64.25 32.3799 64.25 40.25ZM53.5625 34.9062C53.5625 36.8738 51.9675 38.4688 50 38.4688C48.0325 38.4688 46.4375 36.8738 46.4375 34.9062C46.4375 32.9387 48.0325 31.3438 50 31.3438C51.9675 31.3438 53.5625 32.9387 53.5625 34.9062ZM49.9999 42.0312C46.4061 42.0312 43.3095 44.1598 41.902 47.2249C43.8619 49.4983 46.7628 50.9375 50 50.9375C53.237 50.9375 56.138 49.4984 58.0979 47.225C56.6903 44.1598 53.5937 42.0312 49.9999 42.0312Z" fill="#4F46E5"/>
</g>
</g>
<defs>
<clipPath id="clip0_6211_39108">
<rect width="100" height="100" rx="50" fill="white"/>
</clipPath>
</defs>
</svg>
