<svg width="24" height="24" viewBox="0 0 24 24" fill="none" xmlns="http://www.w3.org/2000/svg">
<g id="icon">
<path id="icon_2" fill-rule="evenodd" clip-rule="evenodd" d="M7.20003 2.40001C6.53729 2.40001 6.00003 2.93727 6.00003 3.60001V4.80001H4.80003C3.47454 4.80001 2.40002 5.87453 2.40002 7.20002V19.2C2.40002 20.5255 3.47454 21.6 4.80003 21.6H19.2001C20.5255 21.6 21.6001 20.5255 21.6001 19.2V7.20002C21.6001 5.87453 20.5255 4.80001 19.2001 4.80001H18V3.60001C18 2.93727 17.4628 2.40001 16.8 2.40001C16.1373 2.40001 15.6 2.93727 15.6 3.60001V4.80001H8.40003V3.60001C8.40003 2.93727 7.86277 2.40001 7.20003 2.40001ZM7.20003 8.40002C6.53729 8.40002 6.00003 8.93728 6.00003 9.60002C6.00003 10.2628 6.53729 10.8 7.20003 10.8H16.8C17.4628 10.8 18 10.2628 18 9.60002C18 8.93728 17.4628 8.40002 16.8 8.40002H7.20003Z" fill="#9CA3AF"/>
</g>
</svg>
