<svg width="24" height="24" viewBox="0 0 24 24" fill="none" xmlns="http://www.w3.org/2000/svg">
<g id="special icon">
<path id="Subtract" fill-rule="evenodd" clip-rule="evenodd" d="M5.20001 3.6001C2.99087 3.6001 1.20001 5.39096 1.20001 7.6001V16.4001C1.20001 18.6092 2.99088 20.4001 5.20002 20.4001H18.8C21.0092 20.4001 22.8 18.6092 22.8 16.4001V7.6001C22.8 5.39096 21.0091 3.6001 18.8 3.6001H5.20001ZM8.40001 6.6001C8.06864 6.6001 7.80001 6.86873 7.80001 7.2001V16.8001C7.80001 17.1315 8.06864 17.4001 8.40001 17.4001C8.73138 17.4001 9.00001 17.1315 9.00001 16.8001V7.2001C9.00001 6.86873 8.73138 6.6001 8.40001 6.6001ZM15.6 6.6001C15.2686 6.6001 15 6.86873 15 7.2001V16.8001C15 17.1315 15.2686 17.4001 15.6 17.4001C15.9314 17.4001 16.2 17.1315 16.2 16.8001V7.2001C16.2 6.86873 15.9314 6.6001 15.6 6.6001ZM12 7.8001C11.6686 7.8001 11.4 8.06873 11.4 8.4001V15.6001C11.4 15.9315 11.6686 16.2001 12 16.2001C12.3314 16.2001 12.6 15.9315 12.6 15.6001V8.4001C12.6 8.06873 12.3314 7.8001 12 7.8001ZM18.6 8.4001C18.6 8.06873 18.8686 7.8001 19.2 7.8001C19.5314 7.8001 19.8 8.06873 19.8 8.4001V15.6001C19.8 15.9315 19.5314 16.2001 19.2 16.2001C18.8686 16.2001 18.6 15.9315 18.6 15.6001V8.4001ZM4.20001 8.4001C4.20001 8.06873 4.46864 7.8001 4.80001 7.8001C5.13138 7.8001 5.40001 8.06873 5.40001 8.4001V15.6001C5.40001 15.9315 5.13138 16.2001 4.80001 16.2001C4.46864 16.2001 4.20001 15.9315 4.20001 15.6001V8.4001Z" fill="white"/>
</g>
</svg>
