<svg width="32" height="32" viewBox="0 0 32 32" fill="none" xmlns="http://www.w3.org/2000/svg">
<path d="M27.9202 14.6667C27.3335 9.10671 22.8935 4.66671 17.3335 4.08004V1.33337H14.6668V4.08004C13.1906 4.22783 11.7584 4.66746 10.4535 5.37337L12.4535 7.37337C13.8705 6.78947 15.4096 6.56376 16.9346 6.71623C18.4597 6.86869 19.9236 7.39462 21.197 8.2475C22.4704 9.10038 23.514 10.2539 24.2354 11.6061C24.9569 12.9583 25.3341 14.4674 25.3335 16C25.3335 17.2534 25.0802 18.4534 24.6668 19.5334L26.6668 21.5334C27.3335 20.2534 27.7602 18.84 27.9335 17.3334H30.6668V14.6667H27.9202ZM4.00016 5.69337L6.72016 8.41337C5.25006 10.1963 4.33252 12.3697 4.08016 14.6667H1.3335V17.3334H4.08016C4.66683 22.8934 9.10683 27.3334 14.6668 27.92V30.6667H17.3335V27.92C19.6935 27.6534 21.8402 26.7067 23.5868 25.28L26.3068 28L28.0002 26.3067L5.6935 4.00004L4.00016 5.69337ZM21.6935 23.3867C19.8985 24.7689 17.6618 25.4506 15.4011 25.3044C13.1403 25.1581 11.0101 24.194 9.40811 22.5921C7.80617 20.9902 6.84206 18.8599 6.69584 16.5991C6.54961 14.3384 7.23126 12.1017 8.6135 10.3067L21.6935 23.3867Z" fill="white"/>
</svg>
