<svg width="16" height="16" viewBox="0 0 16 16" fill="none" xmlns="http://www.w3.org/2000/svg">
<g id="food image">
<g clip-path="url(#clip0_7509_13636)">
<path id="Vector" d="M16 0H0V16H16V0Z" fill="#4F46E5"/>
<path id="Union" fill-rule="evenodd" clip-rule="evenodd" d="M4.06556 8.91604C3.01581 8.54469 2.26367 7.54332 2.26367 6.36648C2.26367 4.9405 3.36796 3.77216 4.76792 3.67009C5.50362 2.71567 6.65827 2.10083 7.95661 2.10083C9.25398 2.10083 10.4079 2.71476 11.1437 3.66797C12.5586 3.75452 13.6797 4.92972 13.6797 6.36648C13.6797 7.55457 12.9131 8.56381 11.8476 8.92651V12.848C10.8947 14.079 5.07133 14.0526 4.06556 12.848V8.91604Z" fill="#E5E7EB"/>
<path id="Vector_2" d="M10.6396 8.84009V13.4801C11.2198 13.3298 11.667 13.1225 11.8796 12.8567V8.84009H10.6396Z" fill="#9CA3AF"/>
<path id="Vector_3" d="M4.04004 12.8584C4.0933 12.9224 4.16123 12.9825 4.24004 13.04V8.71997H4.04004V12.8584Z" fill="white"/>
<path id="Vector_4" d="M7.8002 10.12C6.26973 9.47453 4.96633 8.39706 4.04246 7.04004C4.16754 7.57019 4.39784 8.05901 4.71027 8.48453C4.51862 8.52799 4.31946 8.55106 4.11493 8.55106C3.79392 8.55106 3.48578 8.49472 3.2002 8.3917C3.6726 8.80219 4.2894 9.05062 4.96418 9.05062C5.0447 9.05062 5.12415 9.04633 5.20253 9.03936C5.88697 9.68058 6.79581 10.0846 7.79966 10.1195" fill="#9CA3AF"/>
<path id="Vector_5" d="M12.76 8.4176C12.2628 8.67579 11.6969 8.82256 11.0957 8.82256C11.045 8.82256 10.9944 8.82095 10.9443 8.81881C11.4785 8.23548 11.8412 7.49734 11.9523 6.67993C11.3048 8.04211 10.276 9.19323 9 9.99993C9.64754 9.82531 10.2303 9.49749 10.7057 9.05825C10.7945 9.06682 10.8844 9.07164 10.9753 9.07164C11.6577 9.07164 12.2813 8.8247 12.76 8.41814" fill="#9CA3AF"/>
<path id="Vector_6" d="M12.5603 4.20087C12.1571 3.90872 11.6709 3.72586 11.1436 3.6934C10.4069 2.73688 9.2524 2.12012 7.95331 2.12012C6.65422 2.12012 5.49761 2.73742 4.76144 3.69556C3.56166 3.78266 2.57938 4.6537 2.32031 5.80012C2.78878 5.02322 3.54277 4.43946 4.43599 4.19167C4.26167 4.50492 4.12674 4.84306 4.03984 5.20067C4.83052 3.74533 6.36979 2.75798 8.13897 2.75798C9.42403 2.75798 10.5882 3.27898 11.4318 4.12188C11.4015 4.07048 11.3697 4.01963 11.3373 3.96931C11.7621 3.99366 12.1717 4.07265 12.5598 4.20087" fill="white"/>
</g>
</g>
<defs>
<clipPath id="clip0_7509_13636">
<rect width="16" height="16" rx="8" fill="white"/>
</clipPath>
</defs>
</svg>
