<svg width="24" height="24" viewBox="0 0 24 24" fill="none" xmlns="http://www.w3.org/2000/svg">
<g id="special icon">
<path id="Vector" d="M16.7572 7.2374C17.731 7.41253 18.5298 7.93753 19.1541 8.8124C19.7035 9.58753 20.0781 10.5625 20.2776 11.7374C20.4528 12.8125 20.4396 13.8873 20.2401 14.9624C19.9405 16.7373 19.3413 18.2249 18.4424 19.4249C17.3684 20.875 16.0203 21.5999 14.3973 21.5999C13.9976 21.5999 13.5611 21.475 13.0864 21.2249C12.7616 21.025 12.3997 20.9249 12 20.9249C11.6003 20.9249 11.2388 21.025 10.9136 21.2249C10.4389 21.475 10.0024 21.5999 9.60267 21.5999C7.97969 21.5999 6.63159 20.875 5.5576 19.4249C4.65874 18.2249 4.0595 16.7373 3.75988 14.9624C3.56038 13.8873 3.54726 12.8125 3.72238 11.7374C3.92188 10.5625 4.2965 9.58753 4.84586 8.8124C5.47023 7.93753 6.26897 7.41253 7.24283 7.2374C7.84207 7.13728 8.66593 7.22503 9.71479 7.4999C10.6137 7.75003 11.3753 8.05003 11.9996 8.3999C12.624 8.05003 13.3856 7.75003 14.2845 7.4999C15.3337 7.22503 16.1579 7.13728 16.7572 7.2374ZM14.697 5.6999C14.3475 6.02503 13.8851 6.2624 13.311 6.4124C12.9112 6.53728 12.4747 6.5999 12 6.5999L11.4383 6.5624C11.3884 6.21253 11.3884 5.8124 11.4383 5.3624C11.5384 4.4624 11.8253 3.77503 12.2996 3.2999C12.6491 2.97478 13.1115 2.7374 13.6856 2.5874C14.0853 2.46253 14.5218 2.3999 14.9966 2.3999L15.5583 2.4374L15.5958 2.9999C15.5958 3.47503 15.5332 3.91228 15.4087 4.3124C15.2591 4.88728 15.0221 5.35003 14.697 5.6999Z" fill="white"/>
</g>
</svg>
