<svg width="30" height="59" viewBox="0 0 30 59" fill="none" xmlns="http://www.w3.org/2000/svg">
<path fill-rule="evenodd" clip-rule="evenodd" d="M7.83203 0C6.17518 0 4.83203 1.34315 4.83203 3V6H25.832V3C25.832 1.34315 24.4889 0 22.832 0H7.83203ZM0.832031 11C0.832031 9.34315 2.17518 8 3.83203 8H26.832C28.4889 8 29.832 9.34315 29.832 11V56C29.832 57.6569 28.4889 59 26.832 59H3.83203C2.17518 59 0.832031 57.6569 0.832031 56V11ZM3.83219 12.994C3.83222 11.8895 4.72764 11 5.83218 11H24.832C25.9366 11 26.832 11.8895 26.832 12.9941C26.832 16.9615 26.8319 25.6593 26.832 27.946C22.5115 29.8719 19.0854 28.7744 15.6897 27.6866C12.0555 26.5224 8.45608 25.3693 3.83226 27.946C3.83187 25.6593 3.83207 16.9614 3.83219 12.994Z" fill="#4F46E5"/>
</svg>
