<svg width="40" height="40" viewBox="0 0 40 40" fill="none" xmlns="http://www.w3.org/2000/svg">
<path fill-rule="evenodd" clip-rule="evenodd" d="M6 6C3.79086 6 2 7.79086 2 10V30C2 32.2091 3.79086 34 6 34H34C36.2091 34 38 32.2091 38 30V10C38 7.79086 36.2091 6 34 6H6ZM14 11C13.4477 11 13 11.4477 13 12V28C13 28.5523 13.4477 29 14 29C14.5523 29 15 28.5523 15 28V12C15 11.4477 14.5523 11 14 11ZM26 11C25.4477 11 25 11.4477 25 12V28C25 28.5523 25.4477 29 26 29C26.5523 29 27 28.5523 27 28V12C27 11.4477 26.5523 11 26 11ZM20 13C19.4477 13 19 13.4477 19 14V26C19 26.5523 19.4477 27 20 27C20.5523 27 21 26.5523 21 26V14C21 13.4477 20.5523 13 20 13ZM31 14C31 13.4477 31.4477 13 32 13C32.5523 13 33 13.4477 33 14V26C33 26.5523 32.5523 27 32 27C31.4477 27 31 26.5523 31 26V14ZM7 14C7 13.4477 7.44772 13 8 13C8.55228 13 9 13.4477 9 14V26C9 26.5523 8.55228 27 8 27C7.44772 27 7 26.5523 7 26V14Z" fill="#4F46E5"/>
</svg>
