<svg width="24" height="24" viewBox="0 0 24 24" fill="none" xmlns="http://www.w3.org/2000/svg">
<g id="icon">
<path id="icon_2" fill-rule="evenodd" clip-rule="evenodd" d="M9.6 4.79996C6.94904 4.79996 4.80002 6.94898 4.80002 9.59994C4.80002 12.2509 6.94904 14.3999 9.6 14.3999C12.251 14.3999 14.4 12.2509 14.4 9.59994C14.4 6.94898 12.251 4.79996 9.6 4.79996ZM2.40002 9.59994C2.40002 5.6235 5.62356 2.39996 9.6 2.39996C13.5764 2.39996 16.8 5.6235 16.8 9.59994C16.8 11.1549 16.307 12.5948 15.4689 13.7718L21.2485 19.5514C21.7171 20.02 21.7171 20.7798 21.2485 21.2484C20.7799 21.7171 20.0201 21.7171 19.5514 21.2484L13.7718 15.4688C12.5949 16.307 11.155 16.7999 9.6 16.7999C5.62356 16.7999 2.40002 13.5764 2.40002 9.59994Z" fill="#4F46E5"/>
</g>
</svg>
