<svg width="39" height="41" viewBox="0 0 39 41" fill="none" xmlns="http://www.w3.org/2000/svg">
<path d="M38.5539 2.67488C38.396 2.16145 38.1294 1.68757 37.7721 1.28507C37.4148 0.88258 36.975 0.560787 36.4823 0.341311C35.993 0.113672 35.4583 -0.00130238 34.9181 0.0049412H4.49933C3.95934 -0.0252573 3.42062 0.0833453 2.93506 0.320288C2.43162 0.542205 1.98398 0.872505 1.62446 1.28735C1.26731 1.68915 1.00064 2.16223 0.842323 2.67488C0.678499 3.18354 0.628006 3.72158 0.694351 4.25161L4.16111 33.684C4.39364 35.698 5.36603 37.5522 6.88802 38.8977C8.37577 40.2416 10.3109 40.9904 12.3207 41H27.1178C29.1342 40.9916 31.0764 40.243 32.5717 38.8977C34.0737 37.5392 35.0341 35.6886 35.2774 33.684L37.1588 17.1388V16.8865L38.6174 4.27263C38.6992 3.74092 38.6776 3.19852 38.5539 2.67488ZM34.1148 15.541C29.6545 16.403 25.8495 16.5712 21.812 13.4387C16.8021 9.50739 10.7353 10.7688 4.90097 12.829L3.84403 3.91524C3.82324 3.82531 3.82324 3.73187 3.84403 3.64194C3.87281 3.55361 3.92373 3.47402 3.992 3.41069C4.04203 3.3331 4.1163 3.274 4.20339 3.2425C4.28631 3.21912 4.37414 3.21912 4.45706 3.2425H35.1506C35.2299 3.28659 35.3013 3.34342 35.362 3.41069C35.4254 3.47375 35.4677 3.55574 35.4888 3.64194C35.521 3.73743 35.521 3.84077 35.4888 3.93626L34.1148 15.541Z" fill="#4F46E5"/>
</svg>
