<svg width="24" height="24" viewBox="0 0 24 24" fill="none" xmlns="http://www.w3.org/2000/svg">
<g id="special icon">
<path id="Vector" d="M22.2 17.5578C22.2 18.6298 21.7701 19.658 21.005 20.416C20.2398 21.174 19.2021 21.5999 18.12 21.5999H14.04C12.9579 21.5999 11.9201 21.174 11.155 20.416C10.3898 19.658 9.95999 18.6298 9.95999 17.5578V15.5367H22.2V17.5578ZM3.83999 2.3999H14.04C14.581 2.3999 15.0999 2.61283 15.4825 2.99185C15.8651 3.37088 16.08 3.88494 16.08 4.42095V13.5157H7.91999V18.5683H3.83999C3.29895 18.5683 2.78006 18.3554 2.39749 17.9764C2.01492 17.5973 1.79999 17.0833 1.79999 16.5473V4.42095C1.79999 3.88494 2.01492 3.37088 2.39749 2.99185C2.78006 2.61283 3.29895 2.3999 3.83999 2.3999ZM3.83999 5.43148V7.45253H5.87999V5.43148H3.83999ZM14.04 7.45253V5.43148H7.91999V7.45253H14.04ZM3.83999 9.47359V11.4946H5.87999V9.47359H3.83999ZM7.91999 9.47359V11.4946H14.04V9.47359H7.91999ZM3.83999 13.5157V15.5367H5.87999V13.5157H3.83999Z" fill="white"/>
</g>
</svg>
