<svg width="24" height="24" viewBox="0 0 24 24" fill="none" xmlns="http://www.w3.org/2000/svg">
<g id="icon">
<path id="icon_2" fill-rule="evenodd" clip-rule="evenodd" d="M7.52044 4.14594C8.29212 4.08436 9.02471 3.78091 9.61391 3.2788C10.9889 2.10706 13.0112 2.10706 14.3861 3.2788C14.9753 3.78091 15.7079 4.08436 16.4796 4.14594C18.2804 4.28965 19.7104 5.71962 19.8541 7.52041C19.9157 8.29209 20.2191 9.02468 20.7212 9.61388C21.893 10.9888 21.893 13.0111 20.7212 14.3861C20.2191 14.9753 19.9157 15.7079 19.8541 16.4796C19.7104 18.2804 18.2804 19.7103 16.4796 19.854C15.7079 19.9156 14.9753 20.2191 14.3861 20.7212C13.0112 21.8929 10.9889 21.8929 9.61391 20.7212C9.02471 20.2191 8.29212 19.9156 7.52044 19.854C5.71965 19.7103 4.28968 18.2804 4.14597 16.4796C4.08439 15.7079 3.78094 14.9753 3.27883 14.3861C2.10709 13.0111 2.10709 10.9888 3.27883 9.61388C3.78094 9.02468 4.08439 8.29209 4.14597 7.52041C4.28968 5.71962 5.71965 4.28965 7.52044 4.14594ZM16.4486 10.4485C16.9172 9.97989 16.9172 9.22009 16.4486 8.75147C15.9799 8.28284 15.2201 8.28284 14.7515 8.75147L10.8 12.7029L9.24855 11.1515C8.77992 10.6828 8.02012 10.6828 7.5515 11.1515C7.08287 11.6201 7.08287 12.3799 7.5515 12.8485L9.9515 15.2485C10.4201 15.7172 11.1799 15.7172 11.6486 15.2485L16.4486 10.4485Z" fill="#4F46E5"/>
</g>
</svg>
