<svg width="25" height="24" viewBox="0 0 25 24" fill="none" xmlns="http://www.w3.org/2000/svg">
<g id="icon">
<path id="icon_2" d="M11.3 5.76507C10.0314 5.14686 8.60621 4.79999 7.10002 4.79999C5.59383 4.79999 4.16866 5.14686 2.90002 5.76507V17.7651C4.16866 17.1469 5.59383 16.8 7.10002 16.8C9.10235 16.8 10.9615 17.413 12.5 18.4616C14.0386 17.413 15.8977 16.8 17.9 16.8C19.4062 16.8 20.8314 17.1469 22.1 17.7651V5.76507C20.8314 5.14686 19.4062 4.79999 17.9 4.79999C16.3938 4.79999 14.9687 5.14686 13.7 5.76507V14.4C13.7 15.0627 13.1628 15.6 12.5 15.6C11.8373 15.6 11.3 15.0627 11.3 14.4V5.76507Z" fill="#D1D5DB"/>
</g>
</svg>
