<svg width="40" height="40" viewBox="0 0 40 40" fill="none" xmlns="http://www.w3.org/2000/svg">
<path d="M8.2998 33H1.7998L3.45605 30.4L1.7998 27.8L3.45605 25.2L1.7998 22.6L3.45605 20L1.7998 17.4L3.45605 14.8L1.7998 12.2L3.45605 9.59998L1.7998 7H8.2998V33Z" fill="#4F46E5"/>
<path d="M38.1997 7H31.6997V33H38.1997L36.5435 30.4L38.1997 27.8L36.5435 25.2L38.1997 22.6L36.5435 20L38.1997 17.4L36.5435 14.8L38.1997 12.2L36.5435 9.59998L38.1997 7Z" fill="#4F46E5"/>
<path fill-rule="evenodd" clip-rule="evenodd" d="M24.5278 15.3373C25.7412 16.5154 26.4473 18.1198 26.4966 19.8101C26.5483 21.5663 25.8867 23.2684 24.6626 24.5289C23.4385 25.7892 21.7563 26.5005 19.9995 26.5005C17.6782 26.4987 15.5342 25.2595 14.374 23.2493C13.2139 21.2385 13.2139 18.7622 14.374 16.7516C15.5342 14.7412 17.6782 13.5021 19.9995 13.5004C21.6904 13.5004 23.3145 14.1592 24.5278 15.3373ZM23.5962 18.6459C23.7188 18.5201 23.7847 18.3501 23.7803 18.1749C23.7705 17.8229 23.4819 17.5426 23.1304 17.5426C22.9575 17.5422 22.792 17.6107 22.6699 17.7327C22.5479 17.8545 22.4795 18.0199 22.4795 18.1925C22.4795 18.3652 22.5479 18.5306 22.6699 18.6525C22.792 18.7744 22.9575 18.8429 23.1304 18.8425C23.3057 18.8425 23.4736 18.7717 23.5962 18.6459ZM23.7559 21.9867C23.7739 21.9226 23.7822 21.8556 23.7803 21.7878C23.769 21.4368 23.4814 21.158 23.1304 21.1582C22.9575 21.1576 22.7915 21.2261 22.6694 21.348C22.5474 21.4698 22.4785 21.6356 22.4785 21.8082C22.4785 21.9808 22.5474 22.1466 22.6694 22.2684C22.7441 22.3429 22.835 22.3975 22.9341 22.4285C22.9971 22.4482 23.063 22.4585 23.1304 22.4583C23.248 22.4583 23.3623 22.4263 23.4619 22.3672C23.5112 22.338 23.5566 22.3024 23.5972 22.2606C23.6724 22.1831 23.7266 22.0887 23.7559 21.9867ZM20.4653 16.8407C20.5879 16.7151 20.6543 16.545 20.6494 16.3694C20.644 16.1765 20.5552 16.0051 20.418 15.8898C20.3047 15.7946 20.1587 15.7373 19.9995 15.7374C19.8267 15.7372 19.6611 15.8057 19.5391 15.9275C19.459 16.0076 19.4019 16.1064 19.3721 16.2139C19.3564 16.2699 19.3486 16.3282 19.3486 16.3875C19.3486 16.5598 19.417 16.7255 19.5391 16.8474C19.6611 16.9692 19.8267 17.0377 19.9995 17.0375C20.1748 17.0375 20.3428 16.9667 20.4653 16.8407ZM20.4653 20.4537C20.5879 20.3281 20.6543 20.1581 20.6494 19.9828C20.6396 19.6307 20.3516 19.3505 19.9995 19.3505C19.8267 19.3502 19.6611 19.4183 19.5391 19.5403C19.4165 19.6624 19.3481 19.8278 19.3481 20.0005C19.3481 20.1731 19.4165 20.3385 19.5391 20.4607C19.6611 20.5825 19.8267 20.6508 19.9995 20.6505C20.1748 20.6505 20.3428 20.5797 20.4653 20.4537ZM20.4653 24.067C20.5879 23.9412 20.6543 23.7714 20.6494 23.5958C20.6396 23.2438 20.3516 22.9635 19.9995 22.9635C19.8267 22.9633 19.6611 23.0314 19.5391 23.1536C19.4165 23.2754 19.3481 23.4408 19.3481 23.6135C19.3481 23.71 19.3696 23.8043 19.4097 23.89C19.4414 23.9576 19.4849 24.0199 19.5391 24.0737C19.6611 24.1956 19.8267 24.264 19.9995 24.2635C20.1748 24.2635 20.3428 24.1927 20.4653 24.067ZM17.4951 18.3766C17.5142 18.3118 17.5234 18.2438 17.5215 18.1749C17.5117 17.8218 17.2217 17.5411 16.8687 17.5426C16.6963 17.5424 16.5308 17.6108 16.4087 17.7327C16.2866 17.8546 16.2183 18.02 16.2183 18.1926C16.2183 18.3654 16.2866 18.5308 16.4087 18.6526C16.5308 18.7744 16.6963 18.8429 16.8687 18.8427C16.9746 18.8431 17.0781 18.8177 17.1704 18.7699C17.2314 18.7383 17.2876 18.697 17.3364 18.6471C17.4111 18.5704 17.4653 18.4773 17.4951 18.3766ZM17.3354 22.2606C17.4585 22.1344 17.5244 21.9639 17.5186 21.788C17.5078 21.4369 17.2202 21.158 16.8687 21.1583C16.6958 21.1577 16.5303 21.2262 16.4082 21.348C16.3364 21.4196 16.2832 21.506 16.2515 21.6001C16.229 21.6665 16.2173 21.7368 16.2173 21.8083C16.2173 21.981 16.2856 22.1466 16.4082 22.2686C16.5303 22.3904 16.6958 22.4589 16.8687 22.4583C17.0449 22.4583 17.2129 22.3872 17.3354 22.2606Z" fill="#4F46E5"/>
<path fill-rule="evenodd" clip-rule="evenodd" d="M27.1499 9.59973L30.3999 7.43384V32.5654L27.1499 30.3995H12.8501L9.6001 32.5654V7.43384L12.8501 9.59973H27.1499ZM25.5962 25.434C27.0649 23.9214 27.8589 21.8784 27.7974 19.7712C27.7378 17.7426 26.8901 15.8173 25.4346 14.4038C23.9785 12.99 22.0293 12.1992 20 12.1996C17.2134 12.1996 14.6382 13.6862 13.2446 16.0996C11.8516 18.5129 11.8516 21.4862 13.2446 23.8995C14.6382 26.313 17.2134 27.7996 20 27.7996C22.1084 27.7998 24.127 26.9464 25.5962 25.434Z" fill="#4F46E5"/>
</svg>
