<svg width="24" height="24" viewBox="0 0 24 24" fill="none" xmlns="http://www.w3.org/2000/svg">
<g id="icon">
<g id="icon_2">
<path d="M4.79995 3.60001C4.13721 3.60001 3.59995 4.13726 3.59995 4.8V9.59999C3.59995 10.2627 3.06269 10.8 2.39995 10.8C1.73721 10.8 1.19995 10.2627 1.19995 9.59999V4.8C1.19995 2.81178 2.81173 1.20001 4.79995 1.20001H9.59995C10.2627 1.20001 10.7999 1.73727 10.7999 2.40001C10.7999 3.06275 10.2627 3.60001 9.59995 3.60001H4.79995Z" fill="#4F46E5"/>
<path d="M15.8399 7.20033H18.6853C18.9544 7.20033 19.1862 7.39894 19.1994 7.65726C19.2026 7.72221 19.1921 7.78713 19.1684 7.84806C19.1448 7.90899 19.1085 7.96468 19.0617 8.01173C19.015 8.05878 18.9587 8.09622 18.8965 8.12177C18.8342 8.14733 18.7671 8.16047 18.6994 8.16039H18.6182L17.5495 17.8757C17.5176 18.2359 17.3465 18.5715 17.0697 18.8166C16.793 19.0617 16.4307 19.1985 16.0542 19.2H14.5165C14.5017 19.1999 14.4872 19.1958 14.4747 19.188C14.4622 19.1803 14.4522 19.1694 14.446 19.1564C14.4398 19.1435 14.4375 19.1291 14.4395 19.115C14.4415 19.1009 14.4476 19.0876 14.4572 19.0767C14.6869 18.8079 14.8701 18.5054 14.9999 18.1808C15.0241 18.1222 15.0714 18.0751 15.1315 18.0497C15.4788 17.9013 15.7863 17.679 16.0308 17.3995C16.462 16.9099 16.6995 16.2712 16.6995 15.6009C16.6993 15.2783 16.6427 14.958 16.532 14.6534C16.5128 14.5994 16.5144 14.5405 16.5367 14.4875C16.7283 14.0299 16.751 13.5231 16.601 13.0514C16.4511 12.5796 16.1375 12.1714 15.7124 11.8945C15.6596 11.8603 15.6227 11.8078 15.6096 11.748C15.5436 11.4413 15.4373 11.1438 15.2934 10.8627C15.0361 10.363 14.6633 9.92631 14.2034 9.58609C13.3766 8.96745 12.2935 8.64043 11.0749 8.64043C11.0112 8.64047 10.9498 8.61806 10.9023 8.57745C10.8547 8.53685 10.8244 8.48089 10.8171 8.42021L10.7858 8.16039H10.6999C10.6322 8.16039 10.5652 8.14719 10.503 8.1216C10.4408 8.09601 10.3847 8.05855 10.338 8.01151C10.2913 7.96447 10.255 7.90881 10.2314 7.84792C10.2078 7.78703 10.1973 7.72216 10.2005 7.65726C10.214 7.39894 10.4449 7.20033 10.7139 7.20033H14.8093L15.2146 5.64382C15.2348 5.56597 15.2751 5.49424 15.3316 5.43517C15.3882 5.3761 15.4592 5.33159 15.5383 5.30569L17.007 4.82566C17.0711 4.80469 17.139 4.79644 17.2065 4.8014C17.274 4.80637 17.3398 4.82446 17.3998 4.85456C17.4598 4.88466 17.5128 4.92616 17.5556 4.97653C17.5984 5.0269 17.6302 5.08509 17.6488 5.14758C17.7223 5.396 17.5707 5.65582 17.316 5.73892L16.1186 6.13045L15.8399 7.20033Z" fill="#4F46E5"/>
<path d="M7.5202 14.25C7.61281 14.2496 7.70459 14.2667 7.79023 14.3005C7.87586 14.3343 7.95366 14.3841 8.01911 14.4468L8.4743 14.8831C8.4852 14.8935 8.49815 14.9018 8.5124 14.9075C8.52665 14.9131 8.54193 14.9161 8.55735 14.9161C8.57278 14.9161 8.58806 14.9131 8.60231 14.9075C8.61656 14.9018 8.6295 14.8935 8.64041 14.8831L9.09471 14.4468C9.16016 14.3841 9.23796 14.3343 9.3236 14.3005C9.40923 14.2667 9.50101 14.2496 9.59362 14.25H15.3628C15.3937 14.2503 15.4242 14.2447 15.4528 14.2337C15.4814 14.2227 15.5075 14.2064 15.5295 14.1857C15.5515 14.165 15.5691 14.1403 15.5812 14.1132C15.5933 14.086 15.5996 14.0568 15.5999 14.0272V14.025C15.5996 13.7657 15.506 13.5145 15.335 13.3137C15.1639 13.1129 14.9258 12.9747 14.6608 12.9225C14.6368 12.0874 14.2793 11.3885 13.6187 10.8975C13.0077 10.4407 12.1912 10.2 11.2565 10.2H9.14343C7.14132 10.2 5.78516 11.2904 5.73908 12.9225C5.4741 12.9747 5.23601 13.1129 5.06494 13.3137C4.89387 13.5145 4.80028 13.7657 4.79995 14.025C4.79995 14.0846 4.82469 14.1419 4.86872 14.1841C4.91275 14.2263 4.97247 14.25 5.03473 14.25H7.5202Z" fill="#4F46E5"/>
<path d="M9.69743 15.167C9.72594 15.1557 9.75648 15.1499 9.78732 15.15H15.111C15.2212 15.1495 15.3281 15.1863 15.4127 15.254C15.4973 15.3217 15.5543 15.4158 15.5735 15.5198C15.5912 15.6205 15.6 15.7223 15.5999 15.8244C15.5999 16.6853 14.9798 17.3862 14.213 17.3994C14.1417 17.8246 13.9691 18.2088 13.7094 18.5095C13.3252 18.9547 12.7667 19.2 12.1369 19.2H8.26299C7.63319 19.2 7.0747 18.9547 6.69054 18.5101C6.43081 18.2094 6.25824 17.8252 6.18693 17.4C5.42007 17.3862 4.79995 16.6853 4.79995 15.825C4.7999 15.7229 4.80873 15.621 4.82636 15.5204C4.84547 15.4163 4.90238 15.322 4.98702 15.2542C5.07166 15.1864 5.17858 15.1495 5.28889 15.15H7.32562C7.35647 15.1499 7.38701 15.1557 7.41551 15.167C7.44401 15.1783 7.46991 15.1949 7.49173 15.2158L8.14149 15.8387C8.25156 15.9442 8.40083 16.0034 8.55647 16.0034C8.71211 16.0034 8.86138 15.9442 8.97145 15.8387L9.62121 15.2158C9.64303 15.1949 9.66893 15.1783 9.69743 15.167Z" fill="#4F46E5"/>
<path d="M20.3999 19.2C20.3999 19.8627 19.8627 20.4 19.1999 20.4L14.3999 20.4C13.7372 20.4 13.1999 20.9372 13.1999 21.6C13.1999 22.2627 13.7372 22.7999 14.3999 22.7999H19.1999C21.1882 22.7999 22.7999 21.1882 22.7999 19.2V14.4C22.7999 13.7372 22.2627 13.2 21.5999 13.2C20.9372 13.2 20.3999 13.7372 20.3999 14.4V19.2Z" fill="#4F46E5"/>
<path d="M20.3999 4.8C20.3999 4.05442 19.8627 3.6 19.1999 3.6L14.3999 3.60001C13.7372 3.60001 13.1999 3.14559 13.1999 2.40001C13.1999 1.65443 13.7372 1.20001 14.3999 1.20001H19.1999C21.1882 1.20001 22.7999 2.56325 22.7999 4.8V9.44999C22.7999 10.1956 22.2627 10.8 21.5999 10.8C20.9372 10.8 20.3999 10.1956 20.3999 9.44999V4.8Z" fill="#4F46E5"/>
<path d="M4.79995 20.4C4.13721 20.4 3.59995 19.8627 3.59995 19.2L3.59995 14.4C3.59995 13.7372 3.06269 13.2 2.39995 13.2C1.73721 13.2 1.19995 13.7372 1.19995 14.4V19.2C1.19995 21.1882 2.81173 22.7999 4.79995 22.7999H9.59995C10.2627 22.7999 10.7999 22.2627 10.7999 21.6C10.7999 20.9372 10.2627 20.4 9.59995 20.4H4.79995Z" fill="#4F46E5"/>
</g>
</g>
</svg>
