<svg width="24" height="24" viewBox="0 0 24 24" fill="none" xmlns="http://www.w3.org/2000/svg">
<g id="icon">
<path id="icon_2" fill-rule="evenodd" clip-rule="evenodd" d="M21.6 11.9999C21.6 17.3018 17.302 21.5999 12 21.5999C6.69809 21.5999 2.40002 17.3018 2.40002 11.9999C2.40002 6.69797 6.69809 2.3999 12 2.3999C17.302 2.3999 21.6 6.69797 21.6 11.9999ZM12 8.3999C11.5574 8.3999 11.1691 8.63896 10.9598 9.00077C10.628 9.57445 9.89392 9.77048 9.32025 9.43863C8.74657 9.10678 8.55054 8.3727 8.88239 7.79903C9.50304 6.72612 10.666 5.9999 12 5.9999C13.9883 5.9999 15.6 7.61168 15.6 9.5999C15.6 11.1674 14.5983 12.5009 13.2 12.9951V13.1999C13.2 13.8626 12.6628 14.3999 12 14.3999C11.3373 14.3999 10.8 13.8626 10.8 13.1999V11.9999C10.8 11.3372 11.3373 10.7999 12 10.7999C12.6628 10.7999 13.2 10.2626 13.2 9.5999C13.2 8.93716 12.6628 8.3999 12 8.3999ZM12 17.9999C12.6628 17.9999 13.2 17.4626 13.2 16.7999C13.2 16.1372 12.6628 15.5999 12 15.5999C11.3373 15.5999 10.8 16.1372 10.8 16.7999C10.8 17.4626 11.3373 17.9999 12 17.9999Z" fill="#9CA3AF"/>
</g>
</svg>
