<svg width="24" height="24" viewBox="0 0 24 24" fill="none" xmlns="http://www.w3.org/2000/svg">
<g id="icon">
<g id="icon_2">
<path d="M20.8974 3.10294C19.9602 2.16568 18.4406 2.16568 17.5033 3.10294L8.40039 12.2059V15.6H11.7945L20.8974 6.49705C21.8347 5.55979 21.8347 4.0402 20.8974 3.10294Z" fill="#9CA3AF"/>
<path fill-rule="evenodd" clip-rule="evenodd" d="M2.40039 7.19999C2.40039 5.87451 3.47491 4.79999 4.80039 4.79999H9.60039C10.2631 4.79999 10.8004 5.33725 10.8004 5.99999C10.8004 6.66274 10.2631 7.19999 9.60039 7.19999H4.80039V19.2H16.8004V14.4C16.8004 13.7373 17.3376 13.2 18.0004 13.2C18.6631 13.2 19.2004 13.7373 19.2004 14.4V19.2C19.2004 20.5255 18.1259 21.6 16.8004 21.6H4.80039C3.47491 21.6 2.40039 20.5255 2.40039 19.2V7.19999Z" fill="#9CA3AF"/>
</g>
</g>
</svg>
