<svg width="40" height="40" viewBox="0 0 40 40" fill="none" xmlns="http://www.w3.org/2000/svg">
<path d="M30.8889 6H13.7778V9.73333L16.5933 11.9889C16.78 12.1289 16.8889 12.3622 16.8889 12.5956V19.2222C16.8889 19.6578 16.5467 20 16.1111 20H9.88889C9.45333 20 9.11111 19.6578 9.11111 19.2222V12.5956C9.11111 12.3622 9.22 12.1289 9.40667 11.9889L12.2222 9.73333V6H6V21.5556C6 24.9933 8.78444 27.7778 12.2222 27.7778H21.5556C24.9933 27.7778 27.7778 24.9933 27.7778 21.5556V16.8889H30.8889C31.714 16.8889 32.5053 16.5611 33.0888 15.9777C33.6722 15.3942 34 14.6029 34 13.7778V9.11111C34 7.38444 32.6156 6 30.8889 6ZM30.8889 13.7778H27.7778V9.11111H30.8889V13.7778ZM6 30.8889H30.8889V34H6V30.8889Z" fill="#4F46E5"/>
</svg>
