<svg width="24" height="24" viewBox="0 0 24 24" fill="none" xmlns="http://www.w3.org/2000/svg">
<g id="icon">
<path id="icon_2" d="M5.81747 3.63377C5.77732 4.31009 5.8759 4.98749 6.10706 5.62383C6.33822 6.26016 6.69703 6.8418 7.16114 7.33256C6.25907 7.59287 5.45145 8.11108 4.83627 8.82431C4.22108 9.53754 3.82477 10.4151 3.69543 11.3506C3.38353 13.5956 3.84111 15.8805 4.99271 17.8285L5.32413 18.3908C5.33669 18.4115 5.35028 18.4315 5.36484 18.4509L6.70567 20.2674C6.98967 20.6524 7.35363 20.9704 7.77221 21.1994C8.19079 21.4284 8.65393 21.5628 9.12938 21.5933C9.60484 21.6238 10.0812 21.5496 10.5252 21.3759C10.9693 21.2022 11.3704 20.9332 11.7007 20.5876C11.7393 20.5472 11.7856 20.515 11.8368 20.4931C11.8881 20.4711 11.9432 20.4598 11.9989 20.4598C12.0546 20.4598 12.1098 20.4711 12.161 20.4931C12.2123 20.515 12.2586 20.5472 12.2972 20.5876C12.6274 20.9332 13.0286 21.2022 13.4726 21.3759C13.9167 21.5496 14.393 21.6238 14.8685 21.5933C15.3439 21.5628 15.8071 21.4284 16.2257 21.1994C16.6442 20.9704 17.0082 20.6524 17.2922 20.2674L18.633 18.4499C18.6473 18.4306 18.6606 18.4105 18.6728 18.3899L19.0052 17.8276C20.1573 15.8804 20.6159 13.5962 20.3053 11.3516C20.2136 10.6902 19.988 10.0547 19.6425 9.48464C19.2969 8.91453 18.8388 8.42188 18.2964 8.03718C17.7541 7.65248 17.139 7.38392 16.4894 7.24813C15.8397 7.11234 15.1693 7.1122 14.5196 7.24774L12.7195 7.62324H12.7167C12.7451 6.87986 12.8606 6.0793 13.0869 5.395C13.3615 4.56776 13.7422 4.07026 14.1664 3.893C14.3403 3.81995 14.4783 3.68036 14.5499 3.50493C14.6216 3.3295 14.6211 3.13262 14.5485 2.95758C14.4759 2.78254 14.3372 2.64368 14.1629 2.57157C13.9886 2.49945 13.793 2.49997 13.6191 2.57302C12.6229 2.99141 12.0567 3.98354 11.7395 4.94231L11.6959 5.07764C11.4627 4.62413 11.1616 4.20946 10.803 3.8482C10.3119 3.35337 9.72196 2.96919 9.07225 2.72109C8.42254 2.473 7.72787 2.36665 7.03425 2.40909C6.71771 2.42743 6.41887 2.56207 6.19441 2.78745C5.96994 3.01284 5.83548 3.31331 5.81652 3.63186L5.81747 3.63377ZM8.58814 11.0819C8.25956 11.1476 7.95844 11.3802 7.77001 11.8233C7.57778 12.2751 7.50961 12.9451 7.71698 13.7809C7.75961 13.9637 7.72906 14.156 7.63194 14.3164C7.53482 14.4767 7.37892 14.5921 7.19794 14.6377C7.01696 14.6832 6.82543 14.6553 6.66475 14.5599C6.50406 14.4645 6.38713 14.3093 6.33922 14.1278C6.07408 13.0585 6.12427 12.0597 6.46421 11.2601C6.80794 10.4528 7.45374 9.85147 8.30975 9.67992C8.40252 9.65788 8.49875 9.65486 8.5927 9.67104C8.68666 9.68723 8.77641 9.72228 8.85662 9.77412C8.93683 9.82595 9.00585 9.89351 9.05957 9.97276C9.11329 10.052 9.15061 10.1413 9.1693 10.2354C9.188 10.3295 9.18768 10.4264 9.16838 10.5203C9.14908 10.6143 9.11118 10.7034 9.05695 10.7823C9.00272 10.8612 8.93327 10.9283 8.85272 10.9796C8.77218 11.0309 8.6822 11.0663 8.58814 11.0819Z" fill="#4F46E5"/>
</g>
</svg>
