<svg width="40" height="40" viewBox="0 0 40 40" fill="none" xmlns="http://www.w3.org/2000/svg">
<path d="M37 29.2632C37 31.0499 36.2836 32.7634 35.0083 34.0268C33.7331 35.2902 32.0035 36 30.2 36H23.4C21.5965 36 19.8669 35.2902 18.5917 34.0268C17.3164 32.7634 16.6 31.0499 16.6 29.2632V25.8947H37V29.2632ZM6.4 4H23.4C24.3017 4 25.1665 4.35489 25.8042 4.98659C26.4418 5.61829 26.8 6.47506 26.8 7.36842V22.5263H13.2V30.9474H6.4C5.49826 30.9474 4.63346 30.5925 3.99584 29.9608C3.35821 29.3291 3 28.4723 3 27.5789V7.36842C3 6.47506 3.35821 5.61829 3.99584 4.98659C4.63346 4.35489 5.49826 4 6.4 4ZM6.4 9.05263V12.4211H9.8V9.05263H6.4ZM23.4 12.4211V9.05263H13.2V12.4211H23.4ZM6.4 15.7895V19.1579H9.8V15.7895H6.4ZM13.2 15.7895V19.1579H23.4V15.7895H13.2ZM6.4 22.5263V25.8947H9.8V22.5263H6.4Z" fill="#4F46E5"/>
</svg>
