<svg width="40" height="40" viewBox="0 0 40 40" fill="none" xmlns="http://www.w3.org/2000/svg">
<g id="special icon">
<path id="Union" fill-rule="evenodd" clip-rule="evenodd" d="M2.54703 3.24683L1.13281 4.66104L3.41727 6.9455C2.55037 7.67923 2 8.77536 2 10V30C2 32.2092 3.79086 34 6 34H30.4718L34.6301 38.1583L36.0443 36.7441L2.54703 3.24683ZM21 24.5282L19 22.5282V26C19 26.5523 19.4477 27 20 27C20.5523 27 21 26.5523 21 26V24.5282ZM15 18.5282L13 16.5282V28C13 28.5523 13.4477 29 14 29C14.5523 29 15 28.5523 15 28V18.5282ZM15 12V12.8835L19 16.8835V14C19 13.4477 19.4477 13 20 13C20.5523 13 21 13.4477 21 14V18.8835L25 22.8835V12C25 11.4477 25.4477 11 26 11C26.5523 11 27 11.4477 27 12V24.8835L35.726 33.6095C37.0711 32.9652 38 31.5911 38 30V10C38 7.79089 36.2091 6.00003 34 6.00003H8.11651L13.3535 11.2371C13.5279 11.0892 13.7535 11 14 11C14.5523 11 15 11.4477 15 12ZM31 14C31 13.4477 31.4477 13 32 13C32.5523 13 33 13.4477 33 14V26C33 26.5523 32.5523 27 32 27C31.4477 27 31 26.5523 31 26V14ZM7 14C7 13.4477 7.44772 13 8 13C8.55228 13 9 13.4477 9 14V26C9 26.5523 8.55228 27 8 27C7.44772 27 7 26.5523 7 26V14Z" fill="#EF4444"/>
</g>
</svg>
